<?xml version="1.0" encoding="utf-8"?>
<!-- Generator: Adobe Illustrator 16.0.0, SVG Export Plug-In . SVG Version: 6.00 Build 0)  -->
<!DOCTYPE svg PUBLIC "-//W3C//DTD SVG 1.1//EN" "http://www.w3.org/Graphics/SVG/1.1/DTD/svg11.dtd">
<svg version="1.1" id="レイヤー_1" xmlns="http://www.w3.org/2000/svg" xmlns:xlink="http://www.w3.org/1999/xlink" x="0px"
	 y="0px" width="319.185px" height="46.938px" viewBox="0 0 319.185 46.938" enable-background="new 0 0 319.185 46.938"
	 xml:space="preserve">
<g>
	<rect x="-6.315" y="2.938" fill="none" width="385.5" height="71.5"/>
	<path d="M4.068,26.987l13.64,12.706l-2.295,2.402L0.519,28.055v-2.402l14.895-14.041l2.295,2.402L4.068,26.721V26.987z"/>
	<path d="M64.687,14.469c1.762,0,3.328,0.556,4.698,1.668c1.37,1.112,2.367,2.665,2.99,4.658c0.231,0.747,0.405,1.584,0.521,2.509
		c0.116,0.926,0.182,1.713,0.2,2.362c0.018,0.65,0.027,1.615,0.027,2.896s-0.009,2.247-0.027,2.896
		c-0.018,0.65-0.084,1.437-0.2,2.362s-0.29,1.762-0.521,2.509c-0.623,1.993-1.62,3.546-2.99,4.658
		c-1.37,1.112-2.936,1.668-4.698,1.668c-2.278,0-4.217-1.255-5.819-3.764h-0.267v3.336h-3.417V4.646h3.417v13.587h0.267
		C60.47,15.723,62.409,14.469,64.687,14.469z M67.183,18.833c-0.827-0.774-1.837-1.161-3.029-1.161c-1.192,0-2.202,0.387-3.03,1.161
		c-0.828,0.774-1.437,1.739-1.829,2.896c-0.463,1.406-0.694,3.684-0.694,6.833c0,3.149,0.231,5.428,0.694,6.833
		c0.392,1.157,1.001,2.122,1.829,2.896c0.828,0.774,1.837,1.161,3.03,1.161c1.192,0,2.202-0.387,3.029-1.161
		c0.828-0.774,1.437-1.739,1.829-2.896c0.462-1.405,0.694-3.684,0.694-6.833c0-3.15-0.231-5.428-0.694-6.833
		C68.62,20.572,68.01,19.607,67.183,18.833z"/>
	<path d="M85.734,15.963c1.468-0.997,3.243-1.495,5.325-1.495s3.857,0.498,5.325,1.495s2.496,2.287,3.083,3.871
		c0.302,0.765,0.529,1.664,0.681,2.696c0.151,1.032,0.24,1.944,0.267,2.736c0.026,0.792,0.04,1.891,0.04,3.297H85.08
		c0,1.21,0.009,2.14,0.026,2.789c0.018,0.65,0.094,1.428,0.227,2.336c0.133,0.907,0.333,1.664,0.601,2.269
		c1.032,2.332,2.918,3.497,5.659,3.497c2.064,0,4.733-0.187,8.008-0.561v3.203c-3.239,0.374-5.908,0.561-8.008,0.561
		c-2.207,0-4.066-0.516-5.579-1.548c-1.513-1.032-2.607-2.375-3.283-4.031c-0.463-1.121-0.756-2.322-0.881-3.604
		s-0.187-2.918-0.187-4.911c0-1.406,0.014-2.505,0.04-3.297c0.027-0.792,0.116-1.704,0.267-2.736
		c0.151-1.032,0.378-1.931,0.681-2.696C83.238,18.25,84.266,16.96,85.734,15.963z M94.329,18.526
		c-0.899-0.569-1.989-0.854-3.27-0.854s-2.372,0.285-3.27,0.854c-0.898,0.57-1.544,1.361-1.935,2.375
		c-0.374,0.854-0.614,2.34-0.721,4.458h11.852c-0.107-2.118-0.347-3.604-0.721-4.458C95.873,19.887,95.228,19.096,94.329,18.526z"/>
	<path d="M118.926,14.469c1.281,0,2.456,0.258,3.523,0.774c1.068,0.516,1.949,1.21,2.643,2.082c0.445,0.552,0.801,1.121,1.068,1.708
		c0.267,0.587,0.449,1.237,0.547,1.948c0.098,0.712,0.16,1.299,0.187,1.762c0.027,0.463,0.04,1.112,0.04,1.949v17.537h-3.417V24.692
		c0-0.979-0.013-1.708-0.04-2.189s-0.133-1.019-0.32-1.615s-0.467-1.117-0.841-1.562c-0.961-1.103-2.269-1.655-3.924-1.655
		s-2.963,0.552-3.924,1.655c-0.374,0.445-0.654,0.965-0.841,1.562s-0.293,1.134-0.32,1.615s-0.04,1.21-0.04,2.189v17.537h-3.417
		V14.896h3.417v2.99h0.267c0.658-1.032,1.472-1.859,2.442-2.482C116.946,14.78,117.929,14.469,118.926,14.469z"/>
	<path d="M140.4,15.963c1.468-0.997,3.243-1.495,5.325-1.495s3.857,0.498,5.325,1.495s2.496,2.287,3.083,3.871
		c0.302,0.765,0.529,1.664,0.681,2.696c0.151,1.032,0.24,1.944,0.267,2.736c0.026,0.792,0.04,1.891,0.04,3.297h-15.375
		c0,1.21,0.009,2.14,0.026,2.789c0.018,0.65,0.094,1.428,0.227,2.336c0.133,0.907,0.333,1.664,0.601,2.269
		c1.032,2.332,2.918,3.497,5.659,3.497c2.064,0,4.733-0.187,8.008-0.561v3.203c-3.239,0.374-5.908,0.561-8.008,0.561
		c-2.207,0-4.066-0.516-5.579-1.548c-1.513-1.032-2.607-2.375-3.283-4.031c-0.463-1.121-0.756-2.322-0.881-3.604
		s-0.187-2.918-0.187-4.911c0-1.406,0.014-2.505,0.04-3.297c0.027-0.792,0.116-1.704,0.267-2.736
		c0.151-1.032,0.378-1.931,0.681-2.696C137.904,18.25,138.932,16.96,140.4,15.963z M148.995,18.526
		c-0.899-0.569-1.989-0.854-3.27-0.854s-2.372,0.285-3.27,0.854c-0.898,0.57-1.544,1.361-1.935,2.375
		c-0.374,0.854-0.614,2.34-0.721,4.458h11.852c-0.107-2.118-0.347-3.604-0.721-4.458C150.539,19.887,149.894,19.096,148.995,18.526z
		"/>
	<path d="M171.35,42.229h-3.417V21.516H161.1v-3.203h6.833v-6.22c0-0.676,0.013-1.223,0.04-1.642
		c0.027-0.418,0.151-0.996,0.374-1.735c0.223-0.738,0.547-1.392,0.975-1.962c0.587-0.801,1.401-1.423,2.442-1.869
		c1.041-0.444,2.22-0.667,3.537-0.667c1.672,0,3.772,0.143,6.299,0.427v3.203c-2.527-0.284-4.627-0.427-6.299-0.427
		c-1.531,0-2.598,0.4-3.203,1.201c-0.499,0.658-0.748,1.815-0.748,3.47v6.22h10.25v3.203h-10.25V42.229z"/>
	<path d="M200.391,42.229v-24.13h-6.833v-3.203h10.25v27.333H200.391z M199.083,5.046c0.552-0.551,1.272-0.827,2.162-0.827
		s1.61,0.276,2.162,0.827c0.552,0.552,0.828,1.272,0.828,2.162c0,0.89-0.276,1.611-0.828,2.162
		c-0.552,0.552-1.272,0.828-2.162,0.828s-1.61-0.276-2.162-0.828c-0.552-0.551-0.827-1.272-0.827-2.162
		C198.256,6.318,198.531,5.598,199.083,5.046z"/>
	<path d="M236.266,42.256c-1.904,0.267-3.612,0.4-5.125,0.4c-1.424,0-2.718-0.258-3.884-0.774c-1.166-0.516-2.113-1.219-2.843-2.108
		c-0.569-0.676-0.997-1.468-1.281-2.376c-0.285-0.907-0.445-1.664-0.48-2.269s-0.053-1.441-0.053-2.509V18.259h-6.833v-3.363h6.833
		V8.062h3.417v6.833h10.25v3.363h-10.25v14.094c0,0.979,0.014,1.708,0.04,2.189c0.027,0.48,0.129,1.032,0.307,1.655
		c0.178,0.623,0.445,1.157,0.801,1.602c0.925,1.104,2.34,1.655,4.244,1.655c1.263,0,2.883-0.134,4.858-0.4V42.256z"/>
	<path d="M249.932,35.823h6.833v6.406h-6.833V35.823z"/>
	<path d="M273.368,46.366l-3.016-1.415l21.061-44.443l3.016,1.415L273.368,46.366z"/>
	<path d="M301.075,14.015l2.296-2.402l14.895,14.041v2.402l-14.895,14.041l-2.296-2.402l13.64-12.706v-0.267L301.075,14.015z"/>
</g>
<g>
</g>
<g>
</g>
<g>
</g>
<g>
</g>
<g>
</g>
<g>
</g>
<g>
</g>
<g>
</g>
<g>
</g>
<g>
</g>
<g>
</g>
<g>
</g>
<g>
</g>
<g>
</g>
<g>
</g>
</svg>
